<mxfile host="app.diagrams.net" modified="2024-02-20T11:15:03.205Z" agent="Mozilla/5.0 (Macintosh; Intel Mac OS X 10_15_7) AppleWebKit/537.36 (KHTML, like Gecko) Chrome/121.0.0.0 Safari/537.36" etag="TjE02P8sUOWsipvAMvl3" version="23.1.5" type="github">
  <diagram name="第 1 页" id="lPc4SyHF_ex5B_kkq5lm">
    <mxGraphModel dx="1026" dy="558" grid="1" gridSize="10" guides="1" tooltips="1" connect="1" arrows="1" fold="1" page="1" pageScale="1" pageWidth="827" pageHeight="1169" math="0" shadow="0">
      <root>
        <mxCell id="0" />
        <mxCell id="1" parent="0" />
        <mxCell id="ewnw3OYC-Iam68nnNzi5-3" style="edgeStyle=orthogonalEdgeStyle;rounded=0;orthogonalLoop=1;jettySize=auto;html=1;exitX=0.5;exitY=0.5;exitDx=0;exitDy=0;exitPerimeter=0;entryX=0;entryY=0.5;entryDx=0;entryDy=0;" edge="1" parent="1" source="ewnw3OYC-Iam68nnNzi5-1" target="ewnw3OYC-Iam68nnNzi5-2">
          <mxGeometry relative="1" as="geometry" />
        </mxCell>
        <mxCell id="ewnw3OYC-Iam68nnNzi5-1" value="Actor" style="shape=umlActor;verticalLabelPosition=bottom;verticalAlign=top;html=1;outlineConnect=0;" vertex="1" parent="1">
          <mxGeometry x="60" y="160" width="30" height="60" as="geometry" />
        </mxCell>
        <mxCell id="ewnw3OYC-Iam68nnNzi5-6" style="edgeStyle=orthogonalEdgeStyle;rounded=0;orthogonalLoop=1;jettySize=auto;html=1;exitX=0.5;exitY=1;exitDx=0;exitDy=0;entryX=1;entryY=1;entryDx=0;entryDy=0;entryPerimeter=0;" edge="1" parent="1" source="ewnw3OYC-Iam68nnNzi5-2" target="ewnw3OYC-Iam68nnNzi5-1">
          <mxGeometry relative="1" as="geometry">
            <mxPoint x="80" y="320" as="targetPoint" />
          </mxGeometry>
        </mxCell>
        <mxCell id="ewnw3OYC-Iam68nnNzi5-2" value="短链接服务" style="rounded=0;whiteSpace=wrap;html=1;" vertex="1" parent="1">
          <mxGeometry x="210" y="160" width="120" height="60" as="geometry" />
        </mxCell>
        <mxCell id="ewnw3OYC-Iam68nnNzi5-4" value="输入短链接地址" style="text;html=1;align=center;verticalAlign=middle;whiteSpace=wrap;rounded=0;" vertex="1" parent="1">
          <mxGeometry x="100" y="160" width="90" height="30" as="geometry" />
        </mxCell>
        <mxCell id="ewnw3OYC-Iam68nnNzi5-7" value="获取长链接&lt;br&gt;302重定向" style="text;html=1;align=center;verticalAlign=middle;whiteSpace=wrap;rounded=0;" vertex="1" parent="1">
          <mxGeometry x="120" y="250" width="90" height="30" as="geometry" />
        </mxCell>
      </root>
    </mxGraphModel>
  </diagram>
</mxfile>
